<svg width="20" height="18" viewBox="0 0 20 18" fill="none" xmlns="http://www.w3.org/2000/svg">
<path d="M9.84004 12.7832C9.85904 12.8075 9.88332 12.8271 9.91103 12.8406C9.93875 12.8541 9.96917 12.8611 10 12.8611C10.0308 12.8611 10.0613 12.8541 10.089 12.8406C10.1167 12.8271 10.141 12.8075 10.16 12.7832L13.0037 9.18535C13.1078 9.05332 13.0139 8.85781 12.8438 8.85781H10.9623V0.265625C10.9623 0.153906 10.8709 0.0625 10.7592 0.0625H9.23574C9.12402 0.0625 9.03262 0.153906 9.03262 0.265625V8.85527H7.15625C6.98613 8.85527 6.89219 9.05078 6.99629 9.18281L9.84004 12.7832ZM19.293 11.8945H17.7695C17.6578 11.8945 17.5664 11.9859 17.5664 12.0977V16.0078H2.43359V12.0977C2.43359 11.9859 2.34219 11.8945 2.23047 11.8945H0.707031C0.595312 11.8945 0.503906 11.9859 0.503906 12.0977V17.125C0.503906 17.5744 0.866992 17.9375 1.31641 17.9375H18.6836C19.133 17.9375 19.4961 17.5744 19.4961 17.125V12.0977C19.4961 11.9859 19.4047 11.8945 19.293 11.8945Z" fill="white"/>
</svg>
