<svg width="36" height="36" viewBox="0 0 36 36" fill="none" xmlns="http://www.w3.org/2000/svg">
<g opacity="0.45">
<rect width="36" height="36" rx="2" fill="#203654"/>
<path d="M27.8239 16.6704C26.9482 13.6618 25.9607 12.1073 25.9448 12.0794C25.8885 12.0107 24.4931 10.3408 21.1298 9.10559L20.6853 10.3156C22.2854 10.9032 23.4205 11.6201 24.0448 12.0833C22.181 11.5268 19.9638 11.1859 18 11.1859C16.0362 11.1859 13.819 11.5268 11.9552 12.0833C12.5794 11.6202 13.7146 10.9032 15.3146 10.3156L14.8702 9.10559C11.507 10.3408 10.1115 12.0107 10.0552 12.0794C10.0393 12.1073 9.05176 13.6618 8.17614 16.6704C7.33223 19.5698 7.01164 23.6599 7 23.8239C7.0752 23.9415 8.80469 26.8943 13.5181 26.8943L14.7128 25.1643C13.3743 24.8089 12.098 24.2358 10.9297 23.4581L11.6439 22.385C13.5288 23.6396 15.7267 24.3028 18 24.3028C20.2733 24.3028 22.4712 23.6396 24.3561 22.385L25.0703 23.4581C23.9021 24.2358 22.6257 24.8089 21.2872 25.1643L22.4819 26.8943C27.1953 26.8943 28.9248 23.9415 29 23.8239C28.9884 23.6599 28.6678 19.5698 27.8239 16.6704ZM16 20L13.7307 20.0427V17.8942H16V20ZM22.2693 20.0427L20 20V17.8942H22.2693V20.0427Z" fill="white"/>
</g>
</svg>
