<svg width="18" height="18" viewBox="0 0 18 18" fill="none" xmlns="http://www.w3.org/2000/svg">
<path d="M9.00002 0.666687C4.40502 0.666687 0.666687 4.40502 0.666687 9.00002V12.4525C0.666687 13.3059 1.41419 14 2.33335 14H3.16669C3.3877 14 3.59966 13.9122 3.75594 13.7559C3.91222 13.5997 4.00002 13.3877 4.00002 13.1667V8.88085C4.00002 8.65984 3.91222 8.44788 3.75594 8.2916C3.59966 8.13532 3.3877 8.04752 3.16669 8.04752H2.41002C2.87335 4.82252 5.64835 2.33335 9.00002 2.33335C12.3517 2.33335 15.1267 4.82252 15.59 8.04752H14.8334C14.6123 8.04752 14.4004 8.13532 14.2441 8.2916C14.0878 8.44788 14 8.65984 14 8.88085V14C14 14.9192 13.2525 15.6667 12.3334 15.6667H10.6667V14.8334H7.33335V17.3334H12.3334C14.1717 17.3334 15.6667 15.8384 15.6667 14C16.5859 14 17.3334 13.3059 17.3334 12.4525V9.00002C17.3334 4.40502 13.595 0.666687 9.00002 0.666687Z" fill="#677588"/>
</svg>
