<svg width="16" height="16" viewBox="0 0 16 16" fill="none" xmlns="http://www.w3.org/2000/svg">
<path d="M16 8.00372C16 3.58594 12.4178 0.00454712 8 0.00454712C3.5814 0.00454712 0 3.58677 0 8.00372C0 11.409 2.13206 14.3102 5.1304 15.4639L3.62043 8.44558L3.19352 6.46219L2.43771 2.95388L5.36545 2.32348L6.44767 7.35588C6.74003 8.71468 7.35631 9.44392 8.37126 9.22465C9.17442 9.05189 9.51495 8.39824 9.60631 7.89824C9.64701 7.70887 9.61711 7.47465 9.56728 7.24541L8.36877 1.67647L11.2957 1.04774L12.6628 7.40239C13.2126 9.95804 14.701 10.3492 14.701 10.3492C14.701 10.3492 12.6919 10.782 11.8497 10.9622C11.0091 11.1441 10.4427 9.64076 10.4427 9.64076L10.3846 9.65322C10.1453 10.3052 9.87542 11.3642 7.78738 11.8143C7.63455 11.8467 7.48505 11.8675 7.33721 11.8833L8.22093 15.9929C12.5349 15.8758 16 12.3467 16 8.00372Z" fill="white"/>
</svg>
