<svg width="36" height="36" viewBox="0 0 36 36" fill="none" xmlns="http://www.w3.org/2000/svg">
<rect width="36" height="36" rx="2" fill="#203654"/>
<g clip-path="url(#clip0)">
<path fill-rule="evenodd" clip-rule="evenodd" d="M25.802 20.298C25.802 20.298 27.419 21.895 27.819 22.634C27.8268 22.6446 27.8329 22.6564 27.837 22.669C28 22.942 28.04 23.156 27.96 23.314C27.825 23.575 27.368 23.706 27.213 23.717H24.355C24.156 23.717 23.742 23.665 23.238 23.317C22.853 23.048 22.47 22.605 22.099 22.172C21.545 21.529 21.066 20.971 20.581 20.971C20.5198 20.9708 20.4589 20.981 20.401 21.001C20.034 21.117 19.568 21.64 19.568 23.033C19.568 23.469 19.224 23.717 18.983 23.717H17.674C17.228 23.717 14.906 23.561 12.847 21.39C10.324 18.732 8.05803 13.4 8.03603 13.353C7.89503 13.008 8.19103 12.82 8.51103 12.82H11.397C11.784 12.82 11.91 13.054 11.998 13.264C12.1 13.505 12.478 14.469 13.098 15.552C14.102 17.314 14.719 18.031 15.212 18.031C15.3047 18.0312 15.3957 18.0071 15.476 17.961C16.12 17.607 16 15.307 15.97 14.833C15.97 14.741 15.969 13.806 15.639 13.354C15.403 13.03 15.001 12.904 14.758 12.858C14.823 12.764 14.961 12.62 15.138 12.535C15.579 12.315 16.376 12.283 17.167 12.283H17.606C18.464 12.295 18.686 12.35 18.998 12.429C19.626 12.579 19.638 12.986 19.583 14.372C19.567 14.768 19.55 15.214 19.55 15.739C19.55 15.851 19.545 15.976 19.545 16.103C19.526 16.814 19.501 17.615 20.003 17.944C20.0681 17.9845 20.1433 18.006 20.22 18.006C20.394 18.006 20.915 18.006 22.328 15.581C22.948 14.51 23.428 13.247 23.461 13.152C23.489 13.099 23.573 12.95 23.675 12.89C23.7476 12.8514 23.8289 12.8321 23.911 12.834H27.306C27.676 12.834 27.927 12.89 27.976 13.03C28.058 13.257 27.96 13.95 26.41 16.046C26.149 16.395 25.92 16.697 25.719 16.961C24.314 18.805 24.314 18.898 25.802 20.298Z" fill="white"/>
</g>
<defs>
<clipPath id="clip0">
<rect width="20" height="20" fill="white" transform="translate(8 8)"/>
</clipPath>
</defs>
</svg>
