<svg width="36" height="36" viewBox="0 0 36 36" fill="none" xmlns="http://www.w3.org/2000/svg">
<g opacity="">
<rect width="36" height="36" rx="2" fill="#203654"/>
<path d="M26.75 17.9453C26.75 17.9023 26.75 17.8535 26.748 17.7969C26.7461 17.6387 26.7422 17.4609 26.7383 17.2715C26.7227 16.7266 26.6953 16.1836 26.6523 15.6719C26.5938 14.9668 26.5078 14.3789 26.3906 13.9375C26.267 13.4769 26.0246 13.0567 25.6876 12.7191C25.3507 12.3815 24.9311 12.1383 24.4707 12.0137C23.918 11.8652 22.8359 11.7734 21.3125 11.7168C20.5879 11.6895 19.8125 11.6719 19.0371 11.6621C18.7656 11.6582 18.5137 11.6562 18.2871 11.6543H17.7129C17.4863 11.6562 17.2344 11.6582 16.9629 11.6621C16.1875 11.6719 15.4121 11.6895 14.6875 11.7168C13.1641 11.7754 12.0801 11.8672 11.5293 12.0137C11.0688 12.138 10.649 12.3811 10.312 12.7188C9.97504 13.0564 9.73273 13.4767 9.60938 13.9375C9.49023 14.3789 9.40625 14.9668 9.34766 15.6719C9.30469 16.1836 9.27734 16.7266 9.26172 17.2715C9.25586 17.4609 9.25391 17.6387 9.25195 17.7969C9.25195 17.8535 9.25 17.9023 9.25 17.9453V18.0547C9.25 18.0977 9.25 18.1465 9.25195 18.2031C9.25391 18.3613 9.25781 18.5391 9.26172 18.7285C9.27734 19.2734 9.30469 19.8164 9.34766 20.3281C9.40625 21.0332 9.49219 21.6211 9.60938 22.0625C9.85938 22.998 10.5937 23.7363 11.5293 23.9863C12.0801 24.1348 13.1641 24.2266 14.6875 24.2832C15.4121 24.3105 16.1875 24.3281 16.9629 24.3379C17.2344 24.3418 17.4863 24.3438 17.7129 24.3457H18.2871C18.5137 24.3438 18.7656 24.3418 19.0371 24.3379C19.8125 24.3281 20.5879 24.3105 21.3125 24.2832C22.8359 24.2246 23.9199 24.1328 24.4707 23.9863C25.4062 23.7363 26.1406 23 26.3906 22.0625C26.5098 21.6211 26.5938 21.0332 26.6523 20.3281C26.6953 19.8164 26.7227 19.2734 26.7383 18.7285C26.7441 18.5391 26.7461 18.3613 26.748 18.2031C26.748 18.1465 26.75 18.0977 26.75 18.0547V17.9453ZM25.3438 18.0469C25.3438 18.0879 25.3438 18.1328 25.3418 18.1855C25.3398 18.3379 25.3359 18.5059 25.332 18.6875C25.3184 19.207 25.291 19.7266 25.25 20.209C25.1973 20.8379 25.123 21.3535 25.0312 21.6992C24.9102 22.1504 24.5547 22.5078 24.1055 22.627C23.6953 22.7363 22.6621 22.8242 21.2578 22.877C20.5469 22.9043 19.7812 22.9219 19.0176 22.9316C18.75 22.9355 18.502 22.9375 18.2793 22.9375H17.7207L16.9824 22.9316C16.2188 22.9219 15.4551 22.9043 14.7422 22.877C13.3379 22.8223 12.3027 22.7363 11.8945 22.627C11.4453 22.5059 11.0898 22.1504 10.9688 21.6992C10.877 21.3535 10.8027 20.8379 10.75 20.209C10.709 19.7266 10.6836 19.207 10.668 18.6875C10.6621 18.5059 10.6602 18.3359 10.6582 18.1855C10.6582 18.1328 10.6562 18.0859 10.6562 18.0469V17.9531C10.6562 17.9121 10.6563 17.8672 10.6582 17.8145C10.6602 17.6621 10.6641 17.4941 10.668 17.3125C10.6816 16.793 10.709 16.2734 10.75 15.791C10.8027 15.1621 10.877 14.6465 10.9688 14.3008C11.0898 13.8496 11.4453 13.4922 11.8945 13.373C12.3047 13.2637 13.3379 13.1758 14.7422 13.123C15.4531 13.0957 16.2188 13.0781 16.9824 13.0684C17.25 13.0645 17.498 13.0625 17.7207 13.0625H18.2793L19.0176 13.0684C19.7812 13.0781 20.5449 13.0957 21.2578 13.123C22.6621 13.1777 23.6973 13.2637 24.1055 13.373C24.5547 13.4941 24.9102 13.8496 25.0312 14.3008C25.123 14.6465 25.1973 15.1621 25.25 15.791C25.291 16.2734 25.3164 16.793 25.332 17.3125C25.3379 17.4941 25.3398 17.6641 25.3418 17.8145C25.3418 17.8672 25.3438 17.9141 25.3438 17.9531V18.0469ZM16.2617 20.6172L20.793 17.9805L16.2617 15.3828V20.6172Z" fill="white"/>
</g>
</svg>
